<!DOCTYPE svg PUBLIC "-//W3C//DTD SVG 1.1//EN" "http://www.w3.org/Graphics/SVG/1.1/DTD/svg11.dtd">
<!-- Uploaded to: SVG Repo, www.svgrepo.com, Transformed by: SVG Repo Mixer Tools -->
<svg height="64px" width="64px" version="1.1" id="Layer_1" xmlns="http://www.w3.org/2000/svg" xmlns:xlink="http://www.w3.org/1999/xlink" viewBox="0 0 512 512" xml:space="preserve" fill="#000000">
<g id="SVGRepo_bgCarrier" stroke-width="0"/>
<g id="SVGRepo_tracerCarrier" stroke-linecap="round" stroke-linejoin="round"/>
<g id="SVGRepo_iconCarrier"> <path style="fill:#FF8000;" d="M512,480.221C512,497.876,497.876,512,480.221,512H31.779C14.124,512,0,497.876,0,480.221V31.779 C0,14.124,14.124,0,31.779,0h448.441C497.876,0,512,14.124,512,31.779L512,480.221L512,480.221z"/> <path style="fill:#FFFFFF;" d="M414.897,287.779c0-47.669-14.124-67.09-61.793-67.09v-44.138c0-47.669-49.434-79.448-81.214-79.448 h-80.331c-55.614,0-94.455,39.724-94.455,95.338v127.117c0,54.731,38.841,95.338,95.338,95.338h128 c55.614,0,94.455-40.607,94.455-95.338V287.779z"/> <g> <path style="fill:#FF8000;" d="M269.241,220.69h-70.621c-12.359,0-22.069-9.71-22.069-22.069c0-12.359,9.71-22.069,22.069-22.069 h70.621c12.359,0,22.069,9.71,22.069,22.069C291.31,210.979,281.6,220.69,269.241,220.69"/> <path style="fill:#FF8000;" d="M313.379,335.448H198.621c-12.359,0-22.069-9.71-22.069-22.069s9.71-22.069,22.069-22.069h114.759 c12.359,0,22.069,9.71,22.069,22.069S325.738,335.448,313.379,335.448"/> </g> </g>
</svg>